TITLE ""
FILE "1Q_t_0201-0209.mp3" MP3
  TRACK 01 AUDIO
    TITLE "1Q_t_0201-0209_01"
    INDEX 01 00:00:00
  TRACK 02 AUDIO
    TITLE "1Q_t_0201-0209_02"
    INDEX 01 00:00:08
  TRACK 03 AUDIO
    TITLE "1Q_t_0201-0209_03"
    INDEX 01 00:01:43
  TRACK 04 AUDIO
    TITLE "1Q_t_0201-0209_04"
    INDEX 01 00:02:21
  TRACK 05 AUDIO
    TITLE "1Q_t_0201-0209_05"
    INDEX 01 00:03:22
  TRACK 06 AUDIO
    TITLE "1Q_t_0201-0209_06"
    INDEX 01 00:03:75
  TRACK 07 AUDIO
    TITLE "1Q_t_0201-0209_07"
    INDEX 01 00:05:35
  TRACK 08 AUDIO
    TITLE "1Q_t_0201-0209_08"
    INDEX 01 00:05:51
  TRACK 09 AUDIO
    TITLE "1Q_t_0201-0209_09"
    INDEX 01 00:07:44
  TRACK 10 AUDIO
    TITLE "1Q_t_0201-0209_10"
    INDEX 01 00:07:61
  TRACK 11 AUDIO
    TITLE "1Q_t_0201-0209_11"
    INDEX 01 00:14:40
  TRACK 12 AUDIO
    TITLE "1Q_t_0201-0209_12"
    INDEX 01 00:15:20
  TRACK 13 AUDIO
    TITLE "1Q_t_0201-0209_13"
    INDEX 01 00:16:11
  TRACK 14 AUDIO
    TITLE "1Q_t_0201-0209_14"
    INDEX 01 00:16:29
  TRACK 15 AUDIO
    TITLE "1Q_t_0201-0209_15"
    INDEX 01 00:17:73
  TRACK 16 AUDIO
    TITLE "1Q_t_0201-0209_16"
    INDEX 01 00:18:14
  TRACK 17 AUDIO
    TITLE "1Q_t_0201-0209_17"
    INDEX 01 00:23:43
  TRACK 18 AUDIO
    TITLE "1Q_t_0201-0209_18"
    INDEX 01 00:24:19
  TRACK 19 AUDIO
    TITLE "1Q_t_0201-0209_19"
    INDEX 01 00:25:30
  TRACK 20 AUDIO
    TITLE "1Q_t_0201-0209_20"
    INDEX 01 00:25:46
  TRACK 21 AUDIO
    TITLE "1Q_t_0201-0209_21"
    INDEX 01 00:28:30
  TRACK 22 AUDIO
    TITLE "1Q_t_0201-0209_22"
    INDEX 01 00:28:46
  TRACK 23 AUDIO
    TITLE "1Q_t_0201-0209_23"
    INDEX 01 00:33:08
  TRACK 24 AUDIO
    TITLE "1Q_t_0201-0209_24"
    INDEX 01 00:33:67
  TRACK 25 AUDIO
    TITLE "1Q_t_0201-0209_25"
    INDEX 01 00:35:24
  TRACK 26 AUDIO
    TITLE "1Q_t_0201-0209_26"
    INDEX 01 00:35:40
  TRACK 27 AUDIO
    TITLE "1Q_t_0201-0209_27"
    INDEX 01 00:37:08
  TRACK 28 AUDIO
    TITLE "1Q_t_0201-0209_28"
    INDEX 01 00:37:21
  TRACK 29 AUDIO
    TITLE "1Q_t_0201-0209_29"
    INDEX 01 00:41:72
  TRACK 30 AUDIO
    TITLE "1Q_t_0201-0209_30"
    INDEX 01 00:42:50
  TRACK 31 AUDIO
    TITLE "1Q_t_0201-0209_31"
    INDEX 01 00:43:67
  TRACK 32 AUDIO
    TITLE "1Q_t_0201-0209_32"
    INDEX 01 00:44:08
  TRACK 33 AUDIO
    TITLE "1Q_t_0201-0209_33"
    INDEX 01 00:45:52
  TRACK 34 AUDIO
    TITLE "1Q_t_0201-0209_34"
    INDEX 01 00:45:66
  TRACK 35 AUDIO
    TITLE "1Q_t_0201-0209_35"
    INDEX 01 00:50:45
  TRACK 36 AUDIO
    TITLE "1Q_t_0201-0209_36"
    INDEX 01 00:51:23
  TRACK 37 AUDIO
    TITLE "1Q_t_0201-0209_37"
    INDEX 01 00:52:48
  TRACK 38 AUDIO
    TITLE "1Q_t_0201-0209_38"
    INDEX 01 00:52:66
  TRACK 39 AUDIO
    TITLE "1Q_t_0201-0209_39"
    INDEX 01 00:56:44
  TRACK 40 AUDIO
    TITLE "1Q_t_0201-0209_40"
    INDEX 01 00:56:60
  TRACK 41 AUDIO
    TITLE "1Q_t_0201-0209_41"
    INDEX 01 01:01:53
  TRACK 42 AUDIO
    TITLE "1Q_t_0201-0209_42"
    INDEX 01 01:02:29
  TRACK 43 AUDIO
    TITLE "1Q_t_0201-0209_43"
    INDEX 01 01:03:36
  TRACK 44 AUDIO
    TITLE "1Q_t_0201-0209_44"
    INDEX 01 01:03:54
  TRACK 45 AUDIO
    TITLE "1Q_t_0201-0209_45"
    INDEX 01 01:05:51
  TRACK 46 AUDIO
    TITLE "1Q_t_0201-0209_46"
    INDEX 01 01:05:65
  TRACK 47 AUDIO
    TITLE "1Q_t_0201-0209_47"
    INDEX 01 01:11:16
  TRACK 48 AUDIO
    TITLE "1Q_t_0201-0209_48"
    INDEX 01 01:11:71
  TRACK 49 AUDIO
    TITLE "1Q_t_0201-0209_49"
    INDEX 01 01:12:65
  TRACK 50 AUDIO
    TITLE "1Q_t_0201-0209_50"
    INDEX 01 01:13:05
  TRACK 51 AUDIO
    TITLE "1Q_t_0201-0209_51"
    INDEX 01 01:15:30
  TRACK 52 AUDIO
    TITLE "1Q_t_0201-0209_52"
    INDEX 01 01:15:43
  TRACK 53 AUDIO
    TITLE "1Q_t_0201-0209_53"
    INDEX 01 01:19:43
  TRACK 54 AUDIO
    TITLE "1Q_t_0201-0209_54"
    INDEX 01 01:20:23
  TRACK 55 AUDIO
    TITLE "1Q_t_0201-0209_55"
    INDEX 01 01:21:44
  TRACK 56 AUDIO
    TITLE "1Q_t_0201-0209_56"
    INDEX 01 01:21:64
  TRACK 57 AUDIO
    TITLE "1Q_t_0201-0209_57"
    INDEX 01 01:25:12
  TRACK 58 AUDIO
    TITLE "1Q_t_0201-0209_58"
    INDEX 01 01:25:26
  TRACK 59 AUDIO
    TITLE "1Q_t_0201-0209_59"
    INDEX 01 01:30:53
